<svg version="1.1" id="Layer_1" xmlns="http://www.w3.org/2000/svg" xmlns:xlink="http://www.w3.org/1999/xlink" x="0px" y="0px"
	 width="100%" viewBox="0 0 1200 1200" enable-background="new 0 0 1200 1200" xml:space="preserve">
<path fill="#F7BF50" opacity="1.000000" stroke="none" 
	d="
M663.000000,1201.000000 
	C442.000000,1201.000000 221.500000,1201.000000 1.000000,1201.000000 
	C1.000000,801.000000 1.000000,401.000000 1.000000,1.000000 
	C401.000000,1.000000 801.000000,1.000000 1201.000000,1.000000 
	C1201.000000,401.000000 1201.000000,801.000000 1201.000000,1201.000000 
	C1021.833313,1201.000000 842.666687,1201.000000 663.000000,1201.000000 
M281.092499,690.841858 
	C280.748657,698.959290 280.207001,707.074524 280.118774,715.194702 
	C280.037079,722.714478 282.580902,725.204590 289.951843,725.216248 
	C313.110138,725.252808 336.268616,725.171265 359.427002,725.187195 
	C362.534454,725.189331 364.953339,724.027649 365.065491,720.859924 
	C365.339813,713.111023 365.416565,705.334045 364.983093,697.601440 
	C364.908630,696.272949 361.919220,694.024109 360.289978,694.036316 
	C346.155975,694.141602 332.018494,694.517700 317.896973,695.148071 
	C313.024963,695.365540 312.014587,693.390320 312.134583,688.978882 
	C312.611908,671.427307 312.974579,653.868103 313.034882,636.310547 
	C313.162476,599.156738 313.116119,562.002136 313.051300,524.848022 
	C313.027649,511.295227 312.826233,497.740997 312.485382,484.192963 
	C312.444366,482.562927 311.159302,480.858734 310.089630,479.466370 
	C309.916168,479.240601 307.889374,480.600677 306.644714,480.988739 
	C305.481171,481.351532 304.123413,481.775024 303.020630,481.497772 
	C301.109344,481.017181 299.390381,479.605377 297.480713,479.319611 
	C293.605652,478.739655 289.545471,477.995239 285.785797,478.635498 
	C283.902863,478.956116 280.874847,482.477417 281.165253,484.025970 
	C283.054840,494.101898 280.181488,503.889832 280.145782,513.783264 
	C279.952972,567.228333 280.028259,620.674438 280.097046,674.120056 
	C280.103821,679.396729 280.693054,684.672668 281.092499,690.841858 
M219.105560,481.357727 
	C218.046829,483.859222 216.148224,486.336060 216.073898,488.866486 
	C215.741455,500.182709 215.696014,511.521057 216.028564,522.837280 
	C216.191772,528.390686 217.404572,533.913269 218.085449,539.022644 
	C217.429657,541.270325 216.238800,543.483765 216.220932,545.706726 
	C216.069809,564.502380 216.088837,583.299866 216.141312,602.096558 
	C216.231339,634.353333 216.335068,666.610352 216.545471,698.866516 
	C216.590775,705.811951 216.952835,712.766602 217.483627,719.692871 
	C217.752930,723.206787 219.629227,725.415771 223.707108,725.281250 
	C229.674240,725.084412 235.653580,725.294983 241.625992,725.210266 
	C247.429062,725.128052 249.868866,722.847351 250.004608,717.082214 
	C250.245941,706.833435 250.290314,696.579956 250.404739,686.328308 
	C250.568024,671.701477 250.815521,657.074768 250.855576,642.447571 
	C250.921722,618.286621 250.973999,594.124329 250.800354,569.964233 
	C250.651062,549.190552 250.137619,528.419617 249.871475,507.646423 
	C249.786118,500.984680 249.989670,494.319489 250.034546,487.655701 
	C250.059998,483.876526 248.396347,480.513214 244.640610,480.384460 
	C236.382034,480.101379 228.093292,480.698639 219.105560,481.357727 
M396.535034,473.381165 
	C396.535034,465.964264 396.535034,458.547363 396.535034,451.043518 
	C322.671295,451.043518 249.600311,451.043518 176.326035,451.043518 
	C176.326035,461.138855 176.326035,471.014282 176.326035,480.806091 
	C181.391968,480.806091 186.122742,480.806091 191.360901,480.806091 
	C191.360901,475.704102 191.360901,470.965271 191.360901,466.377197 
	C254.922134,466.377197 317.964935,466.377197 381.367340,466.377197 
	C381.367340,471.369812 381.367340,475.989258 381.367340,480.884827 
	C386.473541,480.884827 391.220520,480.884827 396.534882,480.884827 
	C396.534882,478.610168 396.534882,476.477356 396.535034,473.381165 
M367.492188,735.997803 
	C308.783508,735.997803 250.074844,735.997803 190.844711,735.997803 
	C190.844711,730.467102 190.844711,725.733643 190.844711,721.065186 
	C185.705719,721.065186 181.094894,721.065186 176.344864,721.065186 
	C176.344864,731.182739 176.344864,741.057800 176.344864,750.962158 
	C249.779205,750.962158 322.866150,750.962158 396.137451,750.962158 
	C396.137451,740.880310 396.137451,731.014099 396.137451,721.221863 
	C391.005951,721.221863 386.280060,721.221863 380.997314,721.221863 
	C380.997314,726.326111 380.997314,731.048218 380.997314,735.997803 
	C376.450714,735.997803 372.469971,735.997803 367.492188,735.997803 
M918.348755,502.024963 
	C919.330322,501.386414 920.916443,500.946716 921.201843,500.079102 
	C924.977905,488.600769 928.571167,477.062256 932.220886,465.504303 
	C927.180969,463.930511 924.824707,465.527527 923.705139,470.340149 
	C922.151245,477.019623 919.931824,483.544220 917.997314,490.135132 
	C914.585510,483.035889 912.358826,475.918823 909.773560,468.934448 
	C909.197998,467.379700 907.090332,465.058929 906.163635,465.261932 
	C904.543274,465.616943 902.622620,467.400238 902.001465,469.031860 
	C899.355774,475.981689 897.140198,483.095245 894.767639,490.149017 
	C891.758423,483.589203 889.504028,477.025208 888.016479,470.291809 
	C886.844238,464.985840 884.027405,464.038300 879.459534,465.445831 
	C879.441345,465.842773 879.336487,466.188232 879.425354,466.473297 
	C882.691467,476.951599 885.979065,487.423218 889.254395,497.898682 
	C889.943176,500.101715 890.259705,502.179138 893.627075,502.164825 
	C896.965942,502.150604 897.291260,500.083954 898.011169,497.898376 
	C900.359558,490.768036 902.730530,483.645081 905.092834,476.519287 
	C908.764954,483.925354 911.053223,491.342987 913.720093,498.621887 
	C914.237610,500.034363 916.231812,500.905792 918.348755,502.024963 
M820.497986,465.799835 
	C809.805786,469.202606 804.622253,478.693695 807.750854,489.139984 
	C810.719604,499.052612 821.024231,504.181396 831.743835,501.081726 
	C841.559143,498.243530 846.812439,488.503052 844.045898,478.271820 
	C841.455017,468.689911 832.303711,463.583557 820.497986,465.799835 
M764.230469,560.039673 
	C763.021057,551.983337 758.614136,546.765259 750.623596,544.752625 
	C742.857849,542.796631 735.925659,544.494263 730.777283,550.610352 
	C725.735596,556.599670 725.322693,563.675171 728.453308,570.758728 
	C731.780701,578.287354 740.821533,582.425598 749.322205,580.626160 
	C759.374268,578.498230 764.260071,572.047424 764.230469,560.039673 
M906.270691,567.955811 
	C908.083740,570.749084 910.179199,573.402893 911.643005,576.368469 
	C913.790039,580.718079 917.017151,581.894470 922.051819,580.541565 
	C918.511841,575.190918 915.058533,569.971252 911.475647,564.555786 
	C912.154236,564.182678 912.694824,563.888306 913.232849,563.589172 
	C917.458435,561.239746 919.537659,557.665100 918.873047,552.847534 
	C918.181213,547.833313 914.733704,545.258362 910.048401,544.715698 
	C904.674194,544.093262 899.232788,544.051636 893.599243,543.745605 
	C893.599243,556.580811 893.599243,568.638977 893.599243,580.768188 
	C895.873352,580.768188 897.821106,580.768188 900.071655,580.768188 
	C900.071655,575.880737 900.071655,571.249084 900.071655,565.612061 
	C902.325317,566.266296 904.071777,566.773315 906.270691,567.955811 
M758.995056,632.727173 
	C758.516479,627.490051 755.421570,624.465942 750.458923,623.828735 
	C744.952515,623.121582 739.364258,623.052429 733.275391,622.671997 
	C733.275391,634.295837 733.265137,645.055054 733.288879,655.814270 
	C733.291687,657.107483 733.478699,658.400269 733.587708,659.787231 
	C735.803345,659.787231 737.747437,659.787231 740.030151,659.787231 
	C740.030151,657.249023 740.030212,654.944031 740.030212,652.639038 
	C740.030212,650.217346 740.030151,647.795715 740.030151,645.374023 
	C740.511230,645.001648 740.992310,644.629272 741.473389,644.256958 
	C743.354675,645.580872 745.563660,646.617798 747.036316,648.299500 
	C748.984314,650.524170 750.346130,653.260010 751.977478,655.764648 
	C755.137268,660.615662 755.572632,660.769958 761.820801,659.173340 
	C758.388367,653.996277 755.013306,648.905701 751.503845,643.612427 
	C755.753906,641.436279 758.960754,638.554382 758.995056,632.727173 
M816.894409,548.712952 
	C816.807007,547.258423 816.719604,545.803955 816.626892,544.261841 
	C814.379150,544.261841 812.475281,544.261841 810.363342,544.261841 
	C810.363342,552.506531 809.861206,560.503052 810.503052,568.406738 
	C811.158264,576.473145 817.987000,581.418884 826.382507,581.021851 
	C834.609009,580.632812 840.597473,575.302246 840.932617,567.419556 
	C841.257324,559.782410 841.003052,552.120667 841.003052,544.341064 
	C838.695374,544.341064 836.652649,544.341064 834.262512,544.341064 
	C834.262512,551.685425 834.336914,558.662781 834.240295,565.637756 
	C834.154358,571.837830 831.191284,574.958923 825.662842,574.963074 
	C820.204041,574.967224 817.116638,571.799377 816.939148,565.661194 
	C816.785095,560.334656 816.899048,555.000427 816.894409,548.712952 
M894.360901,659.284058 
	C895.633362,656.608521 896.905884,653.932983 898.214722,651.181152 
	C903.375916,651.181152 908.501099,651.181152 913.629578,651.181152 
	C916.189758,654.961060 915.514221,662.567078 923.809448,659.344788 
	C919.309021,648.084900 914.893799,636.804993 910.205139,625.639893 
	C909.691101,624.415771 907.651917,623.256409 906.236755,623.147217 
	C904.802979,623.036682 902.369263,623.887451 901.911926,624.968201 
	C897.080933,636.383850 892.557739,647.929810 887.820435,659.762573 
	C890.142639,659.762573 891.935608,659.762573 894.360901,659.284058 
M753.426270,727.181091 
	C756.783386,718.957092 760.140503,710.733032 763.508484,702.482544 
	C758.296387,700.834106 756.057129,702.832397 754.545837,707.254150 
	C751.989441,714.733887 748.852539,722.015320 745.581299,730.343384 
	C742.230835,721.868408 739.026489,714.552002 736.474060,707.014832 
	C734.910156,702.396606 732.397705,700.997864 727.564453,702.499695 
	C732.332275,714.093506 736.993713,725.629028 741.914612,737.052795 
	C742.357239,738.080261 744.505493,738.937378 745.808899,738.868835 
	C747.078308,738.802063 748.787598,737.725586 749.410645,736.598633 
	C750.930359,733.849670 751.933105,730.815002 753.426270,727.181091 
M729.844482,491.477814 
	C729.844482,494.901733 729.844482,498.325653 729.844482,501.630676 
	C732.433594,501.630676 734.327637,501.630676 736.611511,501.630676 
	C736.611511,496.319427 736.611511,491.373505 736.611511,486.324585 
	C742.715698,486.324585 748.418030,486.324585 754.730347,486.324585 
	C754.730347,491.679260 754.730347,496.720306 754.730347,501.598022 
	C757.233704,501.598022 759.114197,501.598022 760.900635,501.598022 
	C760.900635,489.279724 760.900635,477.363800 760.900635,465.284698 
	C758.747314,465.284698 756.851440,465.284698 754.389526,465.284698 
	C754.389526,470.618683 754.389526,475.679993 754.389526,480.781982 
	C748.215820,480.781982 742.612183,480.781982 736.429565,480.781982 
	C736.429565,475.519623 736.429565,470.457184 736.429565,465.313446 
	C733.948425,465.313446 732.062317,465.313446 729.844482,465.313446 
	C729.844482,473.908905 729.844482,482.195618 729.844482,491.477814 
M658.124634,636.388916 
	C661.640259,629.350647 667.689819,626.823120 674.554993,630.231934 
	C678.326233,632.104431 679.895081,631.187927 680.982727,627.691284 
	C673.310852,621.642151 663.925293,621.460449 656.952209,627.074890 
	C650.447144,632.312500 648.520630,642.788940 652.593994,650.774658 
	C656.404358,658.244629 665.110779,661.799072 673.949585,659.085999 
	C676.758301,658.223938 679.244934,656.312805 682.432190,654.581055 
	C680.510925,652.795288 679.467834,651.825745 678.408386,650.841003 
	C673.068115,654.472778 667.638794,655.622986 662.348083,651.981445 
	C657.141357,648.397827 656.653259,642.962463 658.124634,636.388916 
M657.655396,468.096710 
	C651.603577,475.514069 653.458557,482.353821 662.384277,485.493042 
	C663.477417,485.877533 664.604126,486.165283 665.706177,486.525909 
	C668.989014,487.600098 672.477722,488.801483 671.147156,493.272888 
	C669.815918,497.746490 665.920471,497.174957 662.425110,496.733643 
	C661.327209,496.595032 660.284119,495.872467 659.258789,495.335358 
	C655.099304,493.156586 655.105469,493.144867 653.261536,498.160675 
	C658.809143,501.805481 664.681152,503.404785 671.095642,500.648834 
	C675.719055,498.662384 677.801392,494.775299 677.808350,489.898560 
	C677.814880,485.306274 675.011475,482.628784 670.937622,481.100159 
	C668.454529,480.168488 665.717834,479.661835 663.534790,478.272980 
	C662.157104,477.396484 660.656982,475.064148 660.917358,473.713745 
	C661.190735,472.295471 663.342041,470.651306 664.961060,470.239471 
	C666.712891,469.793884 669.067078,470.167664 670.681763,471.053345 
	C674.075317,472.914795 675.945007,472.345551 676.794678,468.198975 
	C670.746887,464.568085 664.625427,463.473053 657.655396,468.096710 
M834.055969,639.142151 
	C830.119812,639.142151 826.183655,639.142151 822.281250,639.142151 
	C822.281250,634.991882 822.281250,631.625488 822.281250,627.914429 
	C827.788330,627.914429 832.895203,627.914429 838.215454,627.914429 
	C838.215454,626.163391 838.215454,624.770447 838.215454,623.411865 
	C830.396484,623.411865 822.872559,623.411865 815.434998,623.411865 
	C815.434998,635.759827 815.434998,647.673828 815.434998,660.019592 
	C821.193787,660.019592 826.652222,660.019592 832.110657,660.019592 
	C834.067444,660.019592 836.024170,660.019592 838.221619,660.019592 
	C838.221619,658.176025 838.221619,656.783813 838.221619,654.876709 
	C832.713684,654.876709 827.474243,654.876709 822.283936,654.876709 
	C822.283936,650.980591 822.283936,647.614807 822.283936,643.889954 
	C826.635254,643.889954 830.581665,643.889954 834.524719,643.889954 
	C834.732422,643.087891 834.942627,642.632507 834.948792,642.174438 
	C834.959900,641.348877 834.848938,640.521729 834.055969,639.142151 
M650.488037,547.044617 
	C656.514221,557.529358 664.905090,567.145874 662.781860,580.811401 
	C664.748718,580.811401 666.684326,580.811401 669.674805,580.811401 
	C664.928772,565.556641 676.953308,556.241882 682.096008,544.426636 
	C677.175293,542.875793 674.427124,544.726807 672.475220,549.046204 
	C670.632996,553.123169 668.145874,556.908813 665.664490,561.316345 
	C664.302429,558.916687 663.396179,557.337524 662.506592,555.749023 
	C660.639893,552.415955 659.206299,548.706238 656.744385,545.896179 
	C655.482849,544.456238 652.389343,544.621216 650.123779,544.060852 
	C650.112244,544.843140 650.100708,545.625366 650.488037,547.044617 
M973.372864,701.982788 
	C972.112305,702.063416 970.851685,702.144043 969.144531,702.253235 
	C975.216309,714.187073 986.092224,723.881836 982.143616,738.702759 
	C985.133240,738.702759 987.039001,738.702759 989.731628,738.702759 
	C985.319458,723.534729 996.994263,714.190857 1002.239990,702.492249 
	C997.506409,700.933594 994.784302,702.538452 992.864380,706.691406 
	C990.939575,710.855103 988.470459,714.767151 985.855164,719.483337 
	C983.043396,714.449402 980.770203,710.075562 978.178955,705.898987 
	C977.222961,704.358215 975.517517,703.282410 973.372864,701.982788 
M982.710571,639.504150 
	C982.710571,646.246155 982.710571,652.988159 982.710571,659.678101 
	C985.239197,659.678101 987.133728,659.678101 989.330505,659.678101 
	C989.330505,649.078064 989.330505,638.799805 989.330505,627.948242 
	C993.196899,627.948242 996.761536,627.948242 1000.706482,627.948242 
	C1000.545593,625.962891 1000.433960,624.585083 1000.330383,623.306641 
	C990.487671,623.306641 981.088501,623.306641 971.324402,623.306641 
	C971.455933,625.025452 971.561462,626.404419 971.695740,628.159058 
	C975.529724,628.159058 978.965271,628.159058 982.710754,628.159058 
	C982.710754,631.879089 982.710754,635.191711 982.710571,639.504150 
M902.710632,726.475769 
	C902.710632,730.562134 902.710632,734.648560 902.710632,738.679321 
	C905.246887,738.679321 907.138367,738.679321 909.330200,738.679321 
	C909.330200,728.079895 909.330200,717.801453 909.330200,706.948975 
	C913.197266,706.948975 916.762024,706.948975 920.707581,706.948975 
	C920.546021,704.962769 920.433960,703.584839 920.329956,702.306519 
	C910.487061,702.306519 901.087585,702.306519 891.323181,702.306519 
	C891.455750,704.027161 891.561951,705.405151 891.697205,707.159973 
	C895.530579,707.159973 898.965881,707.159973 902.710815,707.159973 
	C902.710815,713.539673 902.710815,719.511169 902.710632,726.475769 
M662.249939,726.482422 
	C662.249939,730.570923 662.249939,734.659424 662.249939,738.751465 
	C664.924561,738.751465 666.857117,738.751465 668.724609,738.751465 
	C668.724609,726.399536 668.724609,714.339111 668.724609,702.280029 
	C666.483887,702.280029 664.576050,702.280029 662.250000,702.280029 
	C662.250000,710.225586 662.250000,717.856384 662.249939,726.482422 
M829.048157,735.917908 
	C829.048157,724.716431 829.048157,713.514893 829.048157,702.233032 
	C826.553894,702.233032 824.640564,702.233032 822.250244,702.233032 
	C822.250244,713.073425 822.241089,723.648193 822.260803,734.222961 
	C822.263550,735.682007 822.409485,737.140747 822.572510,740.126648 
	C825.222168,738.760315 827.128052,737.777527 829.048157,735.917908 
z"/>
<path fill="#291902" opacity="1.000000" stroke="none" 
	d="
M281.052216,690.395386 
	C280.693054,684.672668 280.103821,679.396729 280.097046,674.120056 
	C280.028259,620.674438 279.952972,567.228333 280.145782,513.783264 
	C280.181488,503.889832 283.054840,494.101898 281.165253,484.025970 
	C280.874847,482.477417 283.902863,478.956116 285.785797,478.635498 
	C289.545471,477.995239 293.605652,478.739655 297.480713,479.319611 
	C299.390381,479.605377 301.109344,481.017181 303.020630,481.497772 
	C304.123413,481.775024 305.481171,481.351532 306.644714,480.988739 
	C307.889374,480.600677 309.916168,479.240601 310.089630,479.466370 
	C311.159302,480.858734 312.444366,482.562927 312.485382,484.192963 
	C312.826233,497.740997 313.027649,511.295227 313.051300,524.848022 
	C313.116119,562.002136 313.162476,599.156738 313.034882,636.310547 
	C312.974579,653.868103 312.611908,671.427307 312.134583,688.978882 
	C312.014587,693.390320 313.024963,695.365540 317.896973,695.148071 
	C332.018494,694.517700 346.155975,694.141602 360.289978,694.036316 
	C361.919220,694.024109 364.908630,696.272949 364.983093,697.601440 
	C365.416565,705.334045 365.339813,713.111023 365.065491,720.859924 
	C364.953339,724.027649 362.534454,725.189331 359.427002,725.187195 
	C336.268616,725.171265 313.110138,725.252808 289.951843,725.216248 
	C282.580902,725.204590 280.037079,722.714478 280.118774,715.194702 
	C280.207001,707.074524 280.748657,698.959290 281.052216,690.395386 
z"/>
<path fill="#291A02" opacity="1.000000" stroke="none" 
	d="
M219.461212,481.147156 
	C228.093292,480.698639 236.382034,480.101379 244.640610,480.384460 
	C248.396347,480.513214 250.059998,483.876526 250.034546,487.655701 
	C249.989670,494.319489 249.786118,500.984680 249.871475,507.646423 
	C250.137619,528.419617 250.651062,549.190552 250.800354,569.964233 
	C250.973999,594.124329 250.921722,618.286621 250.855576,642.447571 
	C250.815521,657.074768 250.568024,671.701477 250.404739,686.328308 
	C250.290314,696.579956 250.245941,706.833435 250.004608,717.082214 
	C249.868866,722.847351 247.429062,725.128052 241.625992,725.210266 
	C235.653580,725.294983 229.674240,725.084412 223.707108,725.281250 
	C219.629227,725.415771 217.752930,723.206787 217.483627,719.692871 
	C216.952835,712.766602 216.590775,705.811951 216.545471,698.866516 
	C216.335068,666.610352 216.231339,634.353333 216.141312,602.096558 
	C216.088837,583.299866 216.069809,564.502380 216.220932,545.706726 
	C216.238800,543.483765 217.429657,541.270325 218.085449,539.022644 
	C217.404572,533.913269 216.191772,528.390686 216.028564,522.837280 
	C215.696014,511.521057 215.741455,500.182709 216.073898,488.866486 
	C216.148224,486.336060 218.046829,483.859222 219.461212,481.147156 
z"/>
<path fill="#281901" opacity="1.000000" stroke="none" 
	d="
M396.534973,473.862854 
	C396.534882,476.477356 396.534882,478.610168 396.534882,480.884827 
	C391.220520,480.884827 386.473541,480.884827 381.367340,480.884827 
	C381.367340,475.989258 381.367340,471.369812 381.367340,466.377197 
	C317.964935,466.377197 254.922134,466.377197 191.360901,466.377197 
	C191.360901,470.965271 191.360901,475.704102 191.360901,480.806091 
	C186.122742,480.806091 181.391968,480.806091 176.326035,480.806091 
	C176.326035,471.014282 176.326035,461.138855 176.326035,451.043518 
	C249.600311,451.043518 322.671295,451.043518 396.535034,451.043518 
	C396.535034,458.547363 396.535034,465.964264 396.534973,473.862854 
z"/>
<path fill="#281901" opacity="1.000000" stroke="none" 
	d="
M367.990723,735.997803 
	C372.469971,735.997803 376.450714,735.997803 380.997314,735.997803 
	C380.997314,731.048218 380.997314,726.326111 380.997314,721.221863 
	C386.280060,721.221863 391.005951,721.221863 396.137451,721.221863 
	C396.137451,731.014099 396.137451,740.880310 396.137451,750.962158 
	C322.866150,750.962158 249.779205,750.962158 176.344864,750.962158 
	C176.344864,741.057800 176.344864,731.182739 176.344864,721.065186 
	C181.094894,721.065186 185.705719,721.065186 190.844711,721.065186 
	C190.844711,725.733643 190.844711,730.467102 190.844711,735.997803 
	C250.074844,735.997803 308.783508,735.997803 367.990723,735.997803 
z"/>
<path fill="#332106" opacity="1.000000" stroke="none" 
	d="
M917.946838,502.025879 
	C916.231812,500.905792 914.237610,500.034363 913.720093,498.621887 
	C911.053223,491.342987 908.764954,483.925354 905.092834,476.519287 
	C902.730530,483.645081 900.359558,490.768036 898.011169,497.898376 
	C897.291260,500.083954 896.965942,502.150604 893.627075,502.164825 
	C890.259705,502.179138 889.943176,500.101715 889.254395,497.898682 
	C885.979065,487.423218 882.691467,476.951599 879.425354,466.473297 
	C879.336487,466.188232 879.441345,465.842773 879.459534,465.445831 
	C884.027405,464.038300 886.844238,464.985840 888.016479,470.291809 
	C889.504028,477.025208 891.758423,483.589203 894.767639,490.149017 
	C897.140198,483.095245 899.355774,475.981689 902.001465,469.031860 
	C902.622620,467.400238 904.543274,465.616943 906.163635,465.261932 
	C907.090332,465.058929 909.197998,467.379700 909.773560,468.934448 
	C912.358826,475.918823 914.585510,483.035889 917.997314,490.135132 
	C919.931824,483.544220 922.151245,477.019623 923.705139,470.340149 
	C924.824707,465.527527 927.180969,463.930511 932.220886,465.504303 
	C928.571167,477.062256 924.977905,488.600769 921.201843,500.079102 
	C920.916443,500.946716 919.330322,501.386414 917.946838,502.025879 
z"/>
<path fill="#312005" opacity="1.000000" stroke="none" 
	d="
M820.903931,465.692505 
	C832.303711,463.583557 841.455017,468.689911 844.045898,478.271820 
	C846.812439,488.503052 841.559143,498.243530 831.743835,501.081726 
	C821.024231,504.181396 810.719604,499.052612 807.750854,489.139984 
	C804.622253,478.693695 809.805786,469.202606 820.903931,465.692505 
M831.895325,472.234833 
	C830.470215,471.835022 829.067139,471.219482 827.616272,471.070923 
	C819.145752,470.203491 813.911621,474.935303 813.862122,483.384735 
	C813.812195,491.904572 818.888855,496.666626 827.383850,495.961090 
	C832.341553,495.549347 835.689331,492.970886 837.207520,488.169891 
	C839.117737,482.129089 837.533081,476.860260 831.895325,472.234833 
z"/>
<path fill="#2F1F04" opacity="1.000000" stroke="none" 
	d="
M764.261230,560.450439 
	C764.260071,572.047424 759.374268,578.498230 749.322205,580.626160 
	C740.821533,582.425598 731.780701,578.287354 728.453308,570.758728 
	C725.322693,563.675171 725.735596,556.599670 730.777283,550.610352 
	C735.925659,544.494263 742.857849,542.796631 750.623596,544.752625 
	C758.614136,546.765259 763.021057,551.983337 764.261230,560.450439 
M733.890015,558.604919 
	C732.713562,567.733704 735.610535,573.344482 742.253784,574.803406 
	C749.150757,576.318115 755.142822,573.143616 756.948181,567.018494 
	C759.046692,559.898743 756.205261,552.973145 750.273376,550.749695 
	C743.389404,548.169434 737.227356,550.872375 733.890015,558.604919 
z"/>
<path fill="#332106" opacity="1.000000" stroke="none" 
	d="
M906.044434,567.618042 
	C904.071777,566.773315 902.325317,566.266296 900.071655,565.612061 
	C900.071655,571.249084 900.071655,575.880737 900.071655,580.768188 
	C897.821106,580.768188 895.873352,580.768188 893.599243,580.768188 
	C893.599243,568.638977 893.599243,556.580811 893.599243,543.745605 
	C899.232788,544.051636 904.674194,544.093262 910.048401,544.715698 
	C914.733704,545.258362 918.181213,547.833313 918.873047,552.847534 
	C919.537659,557.665100 917.458435,561.239746 913.232849,563.589172 
	C912.694824,563.888306 912.154236,564.182678 911.475647,564.555786 
	C915.058533,569.971252 918.511841,575.190918 922.051819,580.541565 
	C917.017151,581.894470 913.790039,580.718079 911.643005,576.368469 
	C910.179199,573.402893 908.083740,570.749084 906.044434,567.618042 
M906.883972,560.895752 
	C910.858154,559.947998 913.012451,557.593872 912.200867,553.382812 
	C911.448425,549.478149 907.808594,548.353821 900.319702,549.562500 
	C900.319702,553.237366 900.319702,556.938599 900.319702,560.962708 
	C902.430542,560.962708 904.228760,560.962708 906.883972,560.895752 
z"/>
<path fill="#332106" opacity="1.000000" stroke="none" 
	d="
M758.998779,633.085083 
	C758.960754,638.554382 755.753906,641.436279 751.503845,643.612427 
	C755.013306,648.905701 758.388367,653.996277 761.820801,659.173340 
	C755.572632,660.769958 755.137268,660.615662 751.977478,655.764648 
	C750.346130,653.260010 748.984314,650.524170 747.036316,648.299500 
	C745.563660,646.617798 743.354675,645.580872 741.473389,644.256958 
	C740.992310,644.629272 740.511230,645.001648 740.030151,645.374023 
	C740.030151,647.795715 740.030212,650.217346 740.030212,652.639038 
	C740.030212,654.944031 740.030151,657.249023 740.030151,659.787231 
	C737.747437,659.787231 735.803345,659.787231 733.587708,659.787231 
	C733.478699,658.400269 733.291687,657.107483 733.288879,655.814270 
	C733.265137,645.055054 733.275391,634.295837 733.275391,622.671997 
	C739.364258,623.052429 744.952515,623.121582 750.458923,623.828735 
	C755.421570,624.465942 758.516479,627.490051 758.998779,633.085083 
M745.245544,628.016113 
	C743.642517,628.091858 742.039490,628.167603 739.998779,628.263977 
	C739.998779,630.366760 739.998779,632.150024 739.998779,633.933228 
	C739.998779,635.855103 739.998779,637.776917 739.998779,639.626099 
	C748.382385,640.406555 751.862793,638.960083 752.302673,634.631836 
	C752.751831,630.212463 750.202393,628.335449 745.245544,628.016113 
z"/>
<path fill="#352306" opacity="1.000000" stroke="none" 
	d="
M816.894409,549.191284 
	C816.899048,555.000427 816.785095,560.334656 816.939148,565.661194 
	C817.116638,571.799377 820.204041,574.967224 825.662842,574.963074 
	C831.191284,574.958923 834.154358,571.837830 834.240295,565.637756 
	C834.336914,558.662781 834.262512,551.685425 834.262512,544.341064 
	C836.652649,544.341064 838.695374,544.341064 841.003052,544.341064 
	C841.003052,552.120667 841.257324,559.782410 840.932617,567.419556 
	C840.597473,575.302246 834.609009,580.632812 826.382507,581.021851 
	C817.987000,581.418884 811.158264,576.473145 810.503052,568.406738 
	C809.861206,560.503052 810.363342,552.506531 810.363342,544.261841 
	C812.475281,544.261841 814.379150,544.261841 816.626892,544.261841 
	C816.719604,545.803955 816.807007,547.258423 816.894409,549.191284 
z"/>
<path fill="#2F1F04" opacity="1.000000" stroke="none" 
	d="
M894.044739,659.523315 
	C891.935608,659.762573 890.142639,659.762573 887.820435,659.762573 
	C892.557739,647.929810 897.080933,636.383850 901.911926,624.968201 
	C902.369263,623.887451 904.802979,623.036682 906.236755,623.147217 
	C907.651917,623.256409 909.691101,624.415771 910.205139,625.639893 
	C914.893799,636.804993 919.309021,648.084900 923.809448,659.344788 
	C915.514221,662.567078 916.189758,654.961060 913.629578,651.181152 
	C908.501099,651.181152 903.375916,651.181152 898.214722,651.181152 
	C896.905884,653.932983 895.633362,656.608521 894.044739,659.523315 
M900.439758,645.678650 
	C904.116516,645.678650 907.793335,645.678650 911.913147,645.678650 
	C909.945312,640.380432 908.142578,635.526917 905.888977,629.459351 
	C903.708313,635.429199 901.983276,640.151672 900.439758,645.678650 
z"/>
<path fill="#332106" opacity="1.000000" stroke="none" 
	d="
M753.285156,727.538208 
	C751.933105,730.815002 750.930359,733.849670 749.410645,736.598633 
	C748.787598,737.725586 747.078308,738.802063 745.808899,738.868835 
	C744.505493,738.937378 742.357239,738.080261 741.914612,737.052795 
	C736.993713,725.629028 732.332275,714.093506 727.564453,702.499695 
	C732.397705,700.997864 734.910156,702.396606 736.474060,707.014832 
	C739.026489,714.552002 742.230835,721.868408 745.581299,730.343384 
	C748.852539,722.015320 751.989441,714.733887 754.545837,707.254150 
	C756.057129,702.832397 758.296387,700.834106 763.508484,702.482544 
	C760.140503,710.733032 756.783386,718.957092 753.285156,727.538208 
z"/>
<path fill="#281901" opacity="1.000000" stroke="none" 
	d="
M729.844482,490.980103 
	C729.844482,482.195618 729.844482,473.908905 729.844482,465.313446 
	C732.062317,465.313446 733.948425,465.313446 736.429565,465.313446 
	C736.429565,470.457184 736.429565,475.519623 736.429565,480.781982 
	C742.612183,480.781982 748.215820,480.781982 754.389526,480.781982 
	C754.389526,475.679993 754.389526,470.618683 754.389526,465.284698 
	C756.851440,465.284698 758.747314,465.284698 760.900635,465.284698 
	C760.900635,477.363800 760.900635,489.279724 760.900635,501.598022 
	C759.114197,501.598022 757.233704,501.598022 754.730347,501.598022 
	C754.730347,496.720306 754.730347,491.679260 754.730347,486.324585 
	C748.418030,486.324585 742.715698,486.324585 736.611511,486.324585 
	C736.611511,491.373505 736.611511,496.319427 736.611511,501.630676 
	C734.327637,501.630676 732.433594,501.630676 729.844482,501.630676 
	C729.844482,498.325653 729.844482,494.901733 729.844482,490.980103 
z"/>
<path fill="#2F1F04" opacity="1.000000" stroke="none" 
	d="
M658.015503,636.800049 
	C656.653259,642.962463 657.141357,648.397827 662.348083,651.981445 
	C667.638794,655.622986 673.068115,654.472778 678.408386,650.841003 
	C679.467834,651.825745 680.510925,652.795288 682.432190,654.581055 
	C679.244934,656.312805 676.758301,658.223938 673.949585,659.085999 
	C665.110779,661.799072 656.404358,658.244629 652.593994,650.774658 
	C648.520630,642.788940 650.447144,632.312500 656.952209,627.074890 
	C663.925293,621.460449 673.310852,621.642151 680.982727,627.691284 
	C679.895081,631.187927 678.326233,632.104431 674.554993,630.231934 
	C667.689819,626.823120 661.640259,629.350647 658.015503,636.800049 
z"/>
<path fill="#312005" opacity="1.000000" stroke="none" 
	d="
M657.950073,467.857239 
	C664.625427,463.473053 670.746887,464.568085 676.794678,468.198975 
	C675.945007,472.345551 674.075317,472.914795 670.681763,471.053345 
	C669.067078,470.167664 666.712891,469.793884 664.961060,470.239471 
	C663.342041,470.651306 661.190735,472.295471 660.917358,473.713745 
	C660.656982,475.064148 662.157104,477.396484 663.534790,478.272980 
	C665.717834,479.661835 668.454529,480.168488 670.937622,481.100159 
	C675.011475,482.628784 677.814880,485.306274 677.808350,489.898560 
	C677.801392,494.775299 675.719055,498.662384 671.095642,500.648834 
	C664.681152,503.404785 658.809143,501.805481 653.261536,498.160675 
	C655.105469,493.144867 655.099304,493.156586 659.258789,495.335358 
	C660.284119,495.872467 661.327209,496.595032 662.425110,496.733643 
	C665.920471,497.174957 669.815918,497.746490 671.147156,493.272888 
	C672.477722,488.801483 668.989014,487.600098 665.706177,486.525909 
	C664.604126,486.165283 663.477417,485.877533 662.384277,485.493042 
	C653.458557,482.353821 651.603577,475.514069 657.950073,467.857239 
z"/>
<path fill="#2F1F04" opacity="1.000000" stroke="none" 
	d="
M834.422485,639.418701 
	C834.848938,640.521729 834.959900,641.348877 834.948792,642.174438 
	C834.942627,642.632507 834.732422,643.087891 834.524719,643.889954 
	C830.581665,643.889954 826.635254,643.889954 822.283936,643.889954 
	C822.283936,647.614807 822.283936,650.980591 822.283936,654.876709 
	C827.474243,654.876709 832.713684,654.876709 838.221619,654.876709 
	C838.221619,656.783813 838.221619,658.176025 838.221619,660.019592 
	C836.024170,660.019592 834.067444,660.019592 832.110657,660.019592 
	C826.652222,660.019592 821.193787,660.019592 815.434998,660.019592 
	C815.434998,647.673828 815.434998,635.759827 815.434998,623.411865 
	C822.872559,623.411865 830.396484,623.411865 838.215454,623.411865 
	C838.215454,624.770447 838.215454,626.163391 838.215454,627.914429 
	C832.895203,627.914429 827.788330,627.914429 822.281250,627.914429 
	C822.281250,631.625488 822.281250,634.991882 822.281250,639.142151 
	C826.183655,639.142151 830.119812,639.142151 834.422485,639.418701 
z"/>
<path fill="#352306" opacity="1.000000" stroke="none" 
	d="
M650.288635,546.726135 
	C650.100708,545.625366 650.112244,544.843140 650.123779,544.060852 
	C652.389343,544.621216 655.482849,544.456238 656.744385,545.896179 
	C659.206299,548.706238 660.639893,552.415955 662.506592,555.749023 
	C663.396179,557.337524 664.302429,558.916687 665.664490,561.316345 
	C668.145874,556.908813 670.632996,553.123169 672.475220,549.046204 
	C674.427124,544.726807 677.175293,542.875793 682.096008,544.426636 
	C676.953308,556.241882 664.928772,565.556641 669.674805,580.811401 
	C666.684326,580.811401 664.748718,580.811401 662.781860,580.811401 
	C664.905090,567.145874 656.514221,557.529358 650.288635,546.726135 
z"/>
<path fill="#2F1F04" opacity="1.000000" stroke="none" 
	d="
M973.763428,701.988647 
	C975.517517,703.282410 977.222961,704.358215 978.178955,705.898987 
	C980.770203,710.075562 983.043396,714.449402 985.855164,719.483337 
	C988.470459,714.767151 990.939575,710.855103 992.864380,706.691406 
	C994.784302,702.538452 997.506409,700.933594 1002.239990,702.492249 
	C996.994263,714.190857 985.319458,723.534729 989.731628,738.702759 
	C987.039001,738.702759 985.133240,738.702759 982.143616,738.702759 
	C986.092224,723.881836 975.216309,714.187073 969.144531,702.253235 
	C970.851685,702.144043 972.112305,702.063416 973.763428,701.988647 
z"/>
<path fill="#291A02" opacity="1.000000" stroke="none" 
	d="
M982.710693,639.004211 
	C982.710754,635.191711 982.710754,631.879089 982.710754,628.159058 
	C978.965271,628.159058 975.529724,628.159058 971.695740,628.159058 
	C971.561462,626.404419 971.455933,625.025452 971.324402,623.306641 
	C981.088501,623.306641 990.487671,623.306641 1000.330383,623.306641 
	C1000.433960,624.585083 1000.545593,625.962891 1000.706482,627.948242 
	C996.761536,627.948242 993.196899,627.948242 989.330505,627.948242 
	C989.330505,638.799805 989.330505,649.078064 989.330505,659.678101 
	C987.133728,659.678101 985.239197,659.678101 982.710571,659.678101 
	C982.710571,652.988159 982.710571,646.246155 982.710693,639.004211 
z"/>
<path fill="#291A02" opacity="1.000000" stroke="none" 
	d="
M902.710693,725.979248 
	C902.710815,719.511169 902.710815,713.539673 902.710815,707.159973 
	C898.965881,707.159973 895.530579,707.159973 891.697205,707.159973 
	C891.561951,705.405151 891.455750,704.027161 891.323181,702.306519 
	C901.087585,702.306519 910.487061,702.306519 920.329956,702.306519 
	C920.433960,703.584839 920.546021,704.962769 920.707581,706.948975 
	C916.762024,706.948975 913.197266,706.948975 909.330200,706.948975 
	C909.330200,717.801453 909.330200,728.079895 909.330200,738.679321 
	C907.138367,738.679321 905.246887,738.679321 902.710632,738.679321 
	C902.710632,734.648560 902.710632,730.562134 902.710693,725.979248 
z"/>
<path fill="#392608" opacity="1.000000" stroke="none" 
	d="
M662.250000,725.984802 
	C662.250000,717.856384 662.250000,710.225586 662.250000,702.280029 
	C664.576050,702.280029 666.483887,702.280029 668.724609,702.280029 
	C668.724609,714.339111 668.724609,726.399536 668.724609,738.751465 
	C666.857117,738.751465 664.924561,738.751465 662.249939,738.751465 
	C662.249939,734.659424 662.249939,730.570923 662.250000,725.984802 
z"/>
<path fill="#392608" opacity="1.000000" stroke="none" 
	d="
M829.041016,736.356323 
	C827.128052,737.777527 825.222168,738.760315 822.572510,740.126648 
	C822.409485,737.140747 822.263550,735.682007 822.260803,734.222961 
	C822.241089,723.648193 822.250244,713.073425 822.250244,702.233032 
	C824.640564,702.233032 826.553894,702.233032 829.048157,702.233032 
	C829.048157,713.514893 829.048157,724.716431 829.041016,736.356323 
z"/>
<path fill="#F1BA4E" opacity="1.000000" stroke="none" 
	d="
M832.228577,472.438538 
	C837.533081,476.860260 839.117737,482.129089 837.207520,488.169891 
	C835.689331,492.970886 832.341553,495.549347 827.383850,495.961090 
	C818.888855,496.666626 813.812195,491.904572 813.862122,483.384735 
	C813.911621,474.935303 819.145752,470.203491 827.616272,471.070923 
	C829.067139,471.219482 830.470215,471.835022 832.228577,472.438538 
z"/>
<path fill="#F1BA4E" opacity="1.000000" stroke="none" 
	d="
M733.987793,558.227661 
	C737.227356,550.872375 743.389404,548.169434 750.273376,550.749695 
	C756.205261,552.973145 759.046692,559.898743 756.948181,567.018494 
	C755.142822,573.143616 749.150757,576.318115 742.253784,574.803406 
	C735.610535,573.344482 732.713562,567.733704 733.987793,558.227661 
z"/>
<path fill="#F1BA4E" opacity="1.000000" stroke="none" 
	d="
M906.455444,560.929199 
	C904.228760,560.962708 902.430542,560.962708 900.319702,560.962708 
	C900.319702,556.938599 900.319702,553.237366 900.319702,549.562500 
	C907.808594,548.353821 911.448425,549.478149 912.200867,553.382812 
	C913.012451,557.593872 910.858154,559.947998 906.455444,560.929199 
z"/>
<path fill="#F1BA4E" opacity="1.000000" stroke="none" 
	d="
M745.680664,628.022461 
	C750.202393,628.335449 752.751831,630.212463 752.302673,634.631836 
	C751.862793,638.960083 748.382385,640.406555 739.998779,639.626099 
	C739.998779,637.776917 739.998779,635.855103 739.998779,633.933228 
	C739.998779,632.150024 739.998779,630.366760 739.998779,628.263977 
	C742.039490,628.167603 743.642517,628.091858 745.680664,628.022461 
z"/>
<path fill="#F1BA4E" opacity="1.000000" stroke="none" 
	d="
M900.348999,645.276367 
	C901.983276,640.151672 903.708313,635.429199 905.888977,629.459351 
	C908.142578,635.526917 909.945312,640.380432 911.913147,645.678650 
	C907.793335,645.678650 904.116516,645.678650 900.348999,645.276367 
z"/>
</svg>